<svg height="97" viewBox="0 0 160 97" width="160" xmlns="http://www.w3.org/2000/svg"><g fill="#4c4c4b" fill-rule="evenodd"><g fill-rule="nonzero"><g transform="translate(9 58)"><path d="m5 1.35c-2.40243866 0-4.35 1.94756134-4.35 4.35v21c0 2.4024387 1.94756134 4.35 4.35 4.35h79c2.4024387 0 4.35-1.9475613 4.35-4.35v-21c0-2.40243866-1.9475613-4.35-4.35-4.35zm0-1.3h79c3.1204088 0 5.65 2.52959116 5.65 5.65v21c0 3.1204088-2.5295912 5.65-5.65 5.65h-79c-3.12040884 0-5.65-2.5295912-5.65-5.65v-21c0-3.12040884 2.52959116-5.65 5.65-5.65z"/><path d="m71.6499362 1.65c-.2494659 0-.4346448.17311912-.4346448.36400681v29.33150459c0 .1908877.1851789.3640068.4346448.3640068h1.3015738c.2360381 0 .39849-.1592033.39849-.3640068v-29.33150459c0-.20481837-.1624397-.36400681-.39849-.36400681zm0-1.3h1.3015738c.9482032 0 1.69849.7352695 1.69849 1.66400681v29.33150459c0 .928717-.7502937 1.6640068-1.69849 1.6640068h-1.3015738c-.9485998 0-1.7346448-.7348535-1.7346448-1.6640068v-29.33150459c0-.92915331.786045-1.66400681 1.7346448-1.66400681zm-55.5652914 1.3c-.2494658 0-.4346448.17311912-.4346448.36400681v29.33150459c0 .1908877.185179.3640068.4346448.3640068h1.3015738c.2360543 0 .39849-.1591905.39849-.3640068v-29.33150459c0-.20483114-.1624235-.36400681-.39849-.36400681zm0-1.3h1.3015738c.9482249 0 1.69849.73526246 1.69849 1.66400681v29.33150459c0 .928724-.750272 1.6640068-1.69849 1.6640068h-1.3015738c-.9485998 0-1.7346448-.7348535-1.7346448-1.6640068v-29.33150459c0-.92915331.786045-1.66400681 1.7346448-1.66400681z"/></g><g transform="translate(13 36)"><path d="m5 2.35c-2.40243866 0-4.35 1.94756134-4.35 4.35v11c0 2.4024387 1.94756134 4.35 4.35 4.35h69c2.4024387 0 4.35-1.9475613 4.35-4.35v-11c0-2.40243866-1.9475613-4.35-4.35-4.35zm0-1.3h69c3.1204088 0 5.65 2.52959116 5.65 5.65v11c0 3.1204088-2.5295912 5.65-5.65 5.65h-69c-3.12040884 0-5.65-2.5295912-5.65-5.65v-11c0-3.12040884 2.52959116-5.65 5.65-5.65z"/><path d="m66.6499362 1.61645211c-.2494659 0-.4346448.17311912-.4346448.36400682v20.38963227c0 .1908877.1851789.3640068.4346448.3640068h1.3015738c.2360381 0 .39849-.1592033.39849-.3640068v-20.38963227c0-.20481837-.1624397-.36400682-.39849-.36400682zm0-1.3h1.3015738c.9482032 0 1.69849.73526951 1.69849 1.66400682v20.38963227c0 .928717-.7502937 1.6640068-1.69849 1.6640068h-1.3015738c-.9485998 0-1.7346448-.7348535-1.7346448-1.6640068v-20.38963227c0-.92915331.786045-1.66400682 1.7346448-1.66400682zm-10 1.3c-.2494659 0-.4346448.17311912-.4346448.36400682v20.38963227c0 .1908877.1851789.3640068.4346448.3640068h1.3015738c.2360381 0 .39849-.1592033.39849-.3640068v-20.38963227c0-.20481837-.1624397-.36400682-.39849-.36400682zm0-1.3h1.3015738c.9482032 0 1.69849.73526951 1.69849 1.66400682v20.38963227c0 .928717-.7502937 1.6640068-1.69849 1.6640068h-1.3015738c-.9485998 0-1.7346448-.7348535-1.7346448-1.6640068v-20.38963227c0-.92915331.786045-1.66400682 1.7346448-1.66400682zm-45.5652914 1.3c-.2494658 0-.4346448.17311912-.4346448.36400682v20.38963227c0 .1908877.185179.3640068.4346448.3640068h1.3015738c.2360543 0 .39849-.1591905.39849-.3640068v-20.38963227c0-.20483115-.1624235-.36400682-.39849-.36400682zm0-1.3h1.3015738c.9482249 0 1.69849.73526247 1.69849 1.66400682v20.38963227c0 .928724-.750272 1.6640068-1.69849 1.6640068h-1.3015738c-.9485998 0-1.7346448-.7348535-1.7346448-1.6640068v-20.38963227c0-.92915331.786045-1.66400682 1.7346448-1.66400682zm10 1.3c-.2494658 0-.4346448.17311912-.4346448.36400682v20.38963227c0 .1908877.185179.3640068.4346448.3640068h1.3015738c.2360543 0 .39849-.1591905.39849-.3640068v-20.38963227c0-.20483115-.1624235-.36400682-.39849-.36400682zm0-1.3h1.3015738c.9482249 0 1.69849.73526247 1.69849 1.66400682v20.38963227c0 .928724-.750272 1.6640068-1.69849 1.6640068h-1.3015738c-.9485998 0-1.7346448-.7348535-1.7346448-1.6640068v-20.38963227c0-.92915331.786045-1.66400682 1.7346448-1.66400682z"/></g><g transform="translate(24 5)"><path d="m5 2.35c-2.40243866 0-4.35 1.94756134-4.35 4.35v21c0 2.4024387 1.94756134 4.35 4.35 4.35h29c2.4024387 0 4.35-1.9475613 4.35-4.35v-21c0-2.40243866-1.9475613-4.35-4.35-4.35zm0-1.3h29c3.1204088 0 5.65 2.52959116 5.65 5.65v21c0 3.1204088-2.5295912 5.65-5.65 5.65h-29c-3.12040884 0-5.65-2.5295912-5.65-5.65v-21c0-3.12040884 2.52959116-5.65 5.65-5.65z"/><path d="m18.0846448 1.63292447c-.2494658 0-.4346448.17311912-.4346448.36400682v30.39296291c0 .1908877.185179.3640068.4346448.3640068h1.3015738c.2360382 0 .39849-.1592033.39849-.3640068v-30.39296291c0-.20481838-.1624397-.36400682-.39849-.36400682zm0-1.3h1.3015738c.9482033 0 1.69849.7352695 1.69849 1.66400682v30.39296291c0 .928717-.7502936 1.6640068-1.69849 1.6640068h-1.3015738c-.9485998 0-1.7346448-.7348535-1.7346448-1.6640068v-30.39296291c0-.92915331.786045-1.66400682 1.7346448-1.66400682z"/></g></g><g transform="translate(102 39)"><path d="m6.06809734 25.7464553h1.80391809c.39696084 0 .71876119.3199145.71876119.714549v8.0404776h-3.24144046v-8.0404776c0-.3946345.32180035-.714549.71876118-.714549zm.52391941 1.2455162h.75386548v6.4762724h-.75386548zm-4.24710236 1.0410408h1.80391808c.39696084 0 .71876119.3199145.71876119.714549v5.7539206h-3.24144046v-5.7539206c0-.3946345.32180035-.714549.71876119-.714549zm.5239194 1.2455161h.75386549v4.1611335h-.75386549z"/><path d="m40.1850494 27.571844.5009396 2.371426h5.2541402c.409609-.0012406.7413409-.3326398.7425355-.7417908v-.8879302c-.0011636-.40915-.3329274-.7405428-.7425355-.741705zm6.868883-1.2361656c.4779188.0013189.8650514.3879291.8664823.865313v3.1131311c-.0014937.4773439-.3886034.8638929-.8664823.8652272v.0171559c.4778789.0013343.8649886.3878833.8664823.8652272v2.1124583l-7.5138069-.1795647-1.3353617-7.658948 2.270258-.0028593v-2.2237141c0-.3158307.2563181-.571862.5725024-.571862h2.0670197c.151837 0 .2974553.0602496.4048203.1674945.1073649.1072449.1676819.2527003.1676819.4043675v2.2263733zm-6.868883 6.096907.5009396 1.3044172 5.9969619-.0014296-.0002862-.5612826c-.0012417-.4091175-.33296-.7404648-.7425355-.741705zm2.4108074-7.728172h.7411043v1.6284057h-.7411043z"/><path d="m3.6001228 33.3559644h5.7003405s-.89749774 6.6153085-.30291195 11.754815c.30038912 2.596414 2.30971065 5.5915927 2.30971065 5.5915927h-5.61674296c-2.96871472 0-5.37535377-2.4066353-5.37535377-5.3751532v-8.6865343c0-2.1675484 1.11004639-3.2847202 3.28495753-3.2847202zm.05418356 1.2435954h4.75720242s-.34115578 7.0372939.20695828 11.0885827c.44416189 3.2824269 1.23386587 3.7419666 1.23386587 3.7419666h-4.24827825c-2.16246899 0-4.05115329-2.0649188-4.05115329-4.1103438v-8.6446796c0-1.7048553.64676257-2.0755259 2.10140497-2.0755259zm42.21031674-1.2435954h-5.7004552s.8973257 6.6153085.3027399 11.754815c-.3001597 2.596414-2.3095386 5.5915927-2.3095386 5.5915927h5.6167429c2.9686287 0 5.3753538-2.4066353 5.3753538-5.3751532v-8.6865343c0-2.1675484-1.110333-3.2847202-3.2848428-3.2847202zm-.0544703 1.2435954h-4.756973s.3411557 7.0372939-.206987 11.0885827c-.4443626 3.2824269-1.2338946 3.7419666-1.2338946 3.7419666h4.2481063c2.1627557 0 4.0511533-2.0649188 4.0511533-4.1103438v-8.6446796c0-1.7048553-.6467626-2.0755259-2.101405-2.0755259z"/><path d="m40.1614986 44.7891069c.0050685-.0031788.0116789-.0023383.0157888.0020076-.3556792 2.7755803-1.1278963 4.6084728-2.4564544 4.6084728h-1.4350608s-.2365453-3.7733323 3.8757264-4.6104804zm-30.77644265 0c-.00507607-.0031443-.01166288-.0023068-.01578881.0020076.35565047 2.7755803 1.12798246 4.6084728 2.45639696 4.6084728h1.4351182s.236488-3.7733323-3.87572635-4.6104804zm29.09909515-20.6060598c1.3724796 5.567049 2.2661272 13.8892013 1.8148538 19.4317581-.0066798.0026799-.0140787.0029836-.020956.0008605-5.3297339.7677441-5.1262015 5.7840363-5.1262015 5.7840363h-20.757255s.2035323-5.0162922-5.12594317-5.7840363c-.00696643.0021099-.01444209.0018068-.02121441-.0008605-.45127343-5.5425568.44251775-13.8647091 1.81502608-19.4317581zm-28.66441441-.154868c-2.38942361 9.7729221-3.38589955 26.674193 1.63669851 26.674193h26.6335693c5.0228564 0 4.0261509-16.9012709 1.6368708-26.674193z"/><path d="m11.4119517 24.9282285c-5.36186117 0-2.79706823-11.301914.8851145-15.13719541h4.9255754l-.0058992.86431181 1.5979482-.00227-.0019473-.86204181h11.5843808l-.0074457.84767441h1.8576866l.0025773-.84767441h4.8998021c3.682154 3.83528141 6.0971179 15.13719541.8848854 15.13719541zm24.9021631-14.1317386c3.129745 3.259926 5.0272371 12.857842 1.6400448 12.8664624-3.032379.0078158-23.4940499.0078158-26.5263143 0-3.38713499-.0087641-1.48972886-9.6066225 1.640102-12.866606h23.2461675z"/><path d="m27.7156899 25.6338183v4.0637424h1.2677019v1.7878611l2.4520539 1.7887199 2.3740928-1.7887199v-1.7878611h1.2468071v-4.0637424l-1.2468071-.0019175v-14.8589956h-4.8261467v14.8593963zm4.8255448 4.06317v1.145353l-1.1479224.8585855-1.1410435-.8585855v-1.1456392zm-3.5759001-1.2294658v-1.604267h4.8490765v1.604267zm1.2869342-2.8361942v-14.8417665h2.2889659v14.8420814zm-16.0078567.0026045v4.0636279h1.2677019v1.7878611l2.4521112 1.7887199 2.3740068-1.7887199v-1.7878611h1.2468071v-4.0637424l-1.2468071-.0019175v-14.8589956h-4.8260607v14.8593963zm4.8255735 4.0630555v1.145353l-1.1478938.8585855-1.1409289-.8585855v-1.1456392zm-3.5758429-1.2294658v-1.604267h4.8490479v1.604267zm1.2869343-2.8361942v-14.8417665h2.2889086v14.8420814z"/><path d="m16.6382798 45.6293661c-.9886161 0-1.7900479-.7997054-1.7900479-1.7861918v-4.2882892s-.3580096-.2517816-.3580096-1.0702862l.2148058-2.6878614c0-.9864864.8014317-1.7861917 1.7900479-1.7861917h16.3925425c.9886161 0 1.7900478.7997053 1.7900478 1.7861917l.2148058 2.6878614c0 .8185046-.3580096 1.0702862-.3580096 1.0702862v4.2882892c0 .9864864-.8014317 1.7861918-1.7900478 1.7861918zm15.5225506-1.278056c.7712958 0 1.1098297-.3380904 1.1098297-1.1074389v-2.9802253c-.055853.0056497-.1119892.0080354-.1681213.0071448h-16.8222686c-.056132.0008864-.112268-.0014992-.1681213-.0071448v2.9802253c0 .7693485.3387057 1.1074389 1.1098297 1.1074389h14.9387372zm.3686067-5.3325684c.284864.0000455.5580739-.1128524.7595033-.3138478.2014294-.2009955.314571-.4736168.3145253-.7578673l-.1288834-1.6127168c.0000456-.2842504-.113096-.5568718-.3145254-.7578672-.2014293-.2009954-.4746392-.3138933-.7595033-.3138478h-15.4184415c-.5931696 0-1.0740286.4798231-1.0740286 1.071715l-.1288835 1.6127168c0 .591892.4808591 1.0717151 1.0740288 1.0717151h15.6760936z"/><path d="m12.5009665 1.44511994h24.5446349c1.9785286 0 3.5824429 1.60617296 3.5824429 3.58748773v2.31645518c0 .9514609-.3774349 1.86395243-1.0492732 2.53673694-.6718384.67278441-1.5830468 1.05075081-2.5331697 1.05075081h-24.5446349c-1.9785286 0-3.5824429-1.60617297-3.5824429-3.58748775v-2.31645518c0-1.98131477 1.6039143-3.58748773 3.5824429-3.58748773zm.2675942 1.23386618h4.5772443l-.0004012-.59448977 1.177334.0008323-.0030092.59365747h12.2259319l-.0014329-.57399804h1.2664652l.0014329.57399804h4.7087631c1.4641111 0 2.6510078 1.18856799 2.6510078 2.65474092v1.71418774c0 1.46617292-1.1868967 2.6547409-2.6510078 2.6547409h-4.2889007l-.0002866.85798362-2.1554843.00287-.009171-.86099714h-11.2425944l.0118078.85100954-2.1545958.0099589-.0140146-.86099707h-4.0990885c-1.4641112 0-2.6510078-1.18856802-2.6510078-2.65474095v-1.71401554c0-1.46617293 1.1868966-2.65474092 2.6510078-2.65474092z"/><path d="m30.8384677.87236119h1.2923074c.5947486 0 1.0410253.47917906 1.0410253 1.07029691v8.4145316c0 .5910893-.4462767 1.070297-1.0410253 1.070297h-1.2923074c-.594768 0-1.0769227-.4791883-1.0769227-1.070297v-8.4145316c0-.59110866.4821547-1.07029691 1.0769227-1.07029691zm.1507692 1.24842286h.9117947v8.04106935h-.9117947zm-13.6194834-1.24842286h1.2923073c.5947773 0 1.0410254.47917906 1.0410254 1.07029691v8.4145316c0 .5910893-.4462481 1.070297-1.0410254 1.070297h-1.2923073c-.594768 0-1.0769228-.4791883-1.0769228-1.070297v-8.4145316c0-.59110866.4821548-1.07029691 1.0769228-1.07029691zm.1505969 1.24842286h.9119669v8.04106935h-.9119095v-8.04104081z"/></g></g></svg>